# xmcd CD database file
#
# Track frame offsets:
#	150
#	27393
#	55847
#	85173
#	107939
#	122787
#	161923
#	186169
#	207445
#	227950
#	249135
#
# Disc length: 3540 seconds
#
# Revision: 0
# Processed by: cddbd v1.5.1PL0 Copyright (c) Steve Scherf et al.
# Submitted via: CDex 1.51
#
DISCID=970dd20b
DTITLE=Doreen's Jazz New Orleans - 2 for 2000 - Show your 'TITS' at Mardi Gras - Volume X
DYEAR=2000
DGENRE=Jazz
TTITLE0=Show your tits at Mardi Gras
TTITLE1=All of me
TTITLE2=Stormy weather
TTITLE3=Doreen's do that 2nd line
TTITLE4=Where ya at New Orleans
TTITLE5=Mardi Gras at New Orleans
TTITLE6=Summertime
TTITLE7=Street Scenes
TTITLE8=Funkin' it up on Mardi Gras day
TTITLE9=Indian Mardi Gras
TTITLE10=Carnivaal
EXTD=YEAR: 2000
EXTT0=
EXTT1=
EXTT2=
EXTT3=
EXTT4=
EXTT5=
EXTT6=
EXTT7=
EXTT8=
EXTT9=
EXTT10=
PLAYORDER=
